<svg width="44" height="44" viewBox="0 0 44 44" fill="none" xmlns="http://www.w3.org/2000/svg">
<path d="M21.9993 27.5013C22.5188 27.5013 22.9545 27.3253 23.3065 26.9733C23.6585 26.6213 23.8339 26.1862 23.8327 25.668C23.8315 25.1497 23.6555 24.7146 23.3047 24.3626C22.9539 24.0106 22.5188 23.8346 21.9993 23.8346C21.4799 23.8346 21.0448 24.0106 20.694 24.3626C20.3432 24.7146 20.1672 25.1497 20.166 25.668C20.1648 26.1862 20.3408 26.6219 20.694 26.9751C21.0472 27.3284 21.4823 27.5037 21.9993 27.5013ZM20.166 20.168H23.8327V9.16797H20.166V20.168ZM3.66602 40.3346V7.33464C3.66602 6.3263 4.02535 5.46341 4.74402 4.74597C5.46268 4.02852 6.32557 3.66919 7.33268 3.66797H36.666C37.6743 3.66797 38.5378 4.0273 39.2565 4.74597C39.9752 5.46464 40.3339 6.32752 40.3327 7.33464V29.3346C40.3327 30.343 39.974 31.2065 39.2565 31.9251C38.5391 32.6438 37.6756 33.0025 36.666 33.0013H10.9993L3.66602 40.3346ZM9.44102 29.3346H36.666V7.33464H7.33268V31.3971L9.44102 29.3346Z" fill="#FFC700"/>
</svg>
