<svg width="36" height="34" viewBox="0 0 36 34" fill="none" xmlns="http://www.w3.org/2000/svg">
<path d="M11.4923 3.44141H23.865C28.5784 3.44141 32.408 7.04683 32.408 11.4843V23.1326C32.408 25.2657 31.5079 27.3114 29.9058 28.8197C28.3037 30.328 26.1307 31.1754 23.865 31.1754H11.4923C6.77886 31.1754 2.94922 27.57 2.94922 23.1326V11.4843C2.94922 9.35117 3.84929 7.30544 5.45142 5.79711C7.05355 4.28878 9.22651 3.44141 11.4923 3.44141ZM11.1977 6.21481C9.79135 6.21481 8.44261 6.74076 7.44819 7.67697C6.45376 8.61317 5.8951 9.88294 5.8951 11.2069V23.4099C5.8951 26.1694 8.26653 28.402 11.1977 28.402H24.1595C25.5659 28.402 26.9146 27.8761 27.909 26.9399C28.9035 26.0037 29.4621 24.7339 29.4621 23.4099V11.2069C29.4621 8.44739 27.0907 6.21481 24.1595 6.21481H11.1977ZM25.4115 8.29486C25.8998 8.29486 26.3682 8.47748 26.7134 8.80255C27.0587 9.12762 27.2527 9.56851 27.2527 10.0282C27.2527 10.488 27.0587 10.9288 26.7134 11.2539C26.3682 11.579 25.8998 11.7616 25.4115 11.7616C24.9232 11.7616 24.4549 11.579 24.1096 11.2539C23.7643 10.9288 23.5704 10.488 23.5704 10.0282C23.5704 9.56851 23.7643 9.12762 24.1096 8.80255C24.4549 8.47748 24.9232 8.29486 25.4115 8.29486ZM17.6786 10.3749C19.6318 10.3749 21.5051 11.1054 22.8862 12.4057C24.2674 13.706 25.0433 15.4695 25.0433 17.3084C25.0433 19.1473 24.2674 20.9109 22.8862 22.2111C21.5051 23.5114 19.6318 24.2419 17.6786 24.2419C15.7254 24.2419 13.8521 23.5114 12.471 22.2111C11.0898 20.9109 10.3139 19.1473 10.3139 17.3084C10.3139 15.4695 11.0898 13.706 12.471 12.4057C13.8521 11.1054 15.7254 10.3749 17.6786 10.3749ZM17.6786 13.1483C16.5067 13.1483 15.3827 13.5866 14.554 14.3668C13.7253 15.1469 13.2598 16.2051 13.2598 17.3084C13.2598 18.4117 13.7253 19.4699 14.554 20.25C15.3827 21.0302 16.5067 21.4685 17.6786 21.4685C18.8506 21.4685 19.9745 21.0302 20.8032 20.25C21.6319 19.4699 22.0974 18.4117 22.0974 17.3084C22.0974 16.2051 21.6319 15.1469 20.8032 14.3668C19.9745 13.5866 18.8506 13.1483 17.6786 13.1483Z" fill="white"/>
</svg>
