<svg width="37" height="32" viewBox="0 0 37 32" fill="none" xmlns="http://www.w3.org/2000/svg">
<path d="M8.2391 4.2261C8.23861 5.14549 7.84733 6.02704 7.15134 6.67682C6.45534 7.32661 5.51165 7.69139 4.52785 7.69093C3.54406 7.69047 2.60076 7.3248 1.90546 6.67437C1.21016 6.02394 0.819821 5.14203 0.820313 4.22264C0.820805 3.30325 1.21209 2.4217 1.90808 1.77192C2.60408 1.12214 3.54777 0.757353 4.53156 0.757813C5.51536 0.758273 6.45866 1.12394 7.15396 1.77437C7.84926 2.4248 8.2396 3.30672 8.2391 4.2261ZM8.35039 10.2579H0.931595V31.9586H8.35039V10.2579ZM20.0721 10.2579H12.6904V31.9586H19.9979V20.5709C19.9979 14.2271 28.8448 13.6378 28.8448 20.5709V31.9586H36.1708V18.2137C36.1708 7.51934 23.0767 7.91799 19.9979 13.1698L20.0721 10.2579Z" fill="white"/>
</svg>
