<svg width="25" height="26" viewBox="0 0 25 26" fill="none" xmlns="http://www.w3.org/2000/svg">
<path d="M18.2313 16.824H17.0792L16.6708 16.4331C17.5822 15.3818 18.2483 14.1436 18.6214 12.8069C18.9946 11.4702 19.0655 10.0681 18.8292 8.70106C18.1438 4.67576 14.7604 1.46132 10.6771 0.969013C9.24154 0.788694 7.78346 0.936828 6.41443 1.40208C5.0454 1.86733 3.80171 2.63737 2.77852 3.65327C1.75534 4.66916 0.979775 5.904 0.511188 7.26328C0.0425998 8.62256 -0.106596 10.0703 0.0750162 11.4956C0.570849 15.5499 3.80835 18.9091 7.86252 19.5896C9.23941 19.8243 10.6515 19.7538 11.9978 19.3834C13.3441 19.0129 14.5912 18.3516 15.65 17.4467L16.0438 17.8521V18.996L22.2417 25.1498C22.8396 25.7434 23.8167 25.7434 24.4146 25.1498C25.0125 24.5561 25.0125 23.586 24.4146 22.9923L18.2313 16.824ZM9.48127 16.824C5.85002 16.824 2.91877 13.9137 2.91877 10.3083C2.91877 6.70289 5.85002 3.79251 9.48127 3.79251C13.1125 3.79251 16.0438 6.70289 16.0438 10.3083C16.0438 13.9137 13.1125 16.824 9.48127 16.824Z" fill="black"/>
</svg>
