<svg width="45" height="35" viewBox="0 0 45 35" fill="none" xmlns="http://www.w3.org/2000/svg">
<path fill-rule="evenodd" clip-rule="evenodd" d="M22.7308 0.757812C24.6198 0.757812 26.5575 0.803574 28.4355 0.878456L30.6537 0.978298L32.777 1.09686L34.7655 1.22374L36.5816 1.35687C38.5528 1.49808 40.4078 2.28963 41.82 3.59209C43.2322 4.89455 44.1108 6.62438 44.3013 8.47688L44.3896 9.3609L44.5553 11.2537C44.71 13.2152 44.8249 15.3535 44.8249 17.3982C44.8249 19.4429 44.71 21.5812 44.5553 23.5427L44.3896 25.4355L44.3013 26.3196C44.1108 28.1724 43.2318 29.9025 41.8192 31.205C40.4065 32.5075 38.551 33.2988 36.5794 33.4396L34.7677 33.5706L32.7792 33.6996L30.6537 33.8181L28.4355 33.918C26.535 33.9955 24.6331 34.0357 22.7308 34.0386C20.8286 34.0357 18.9266 33.9955 17.0261 33.918L14.8079 33.8181L12.6846 33.6996L10.6962 33.5706L8.88002 33.4396C6.90882 33.2984 5.05377 32.5068 3.64161 31.2043C2.22946 29.9019 1.35078 28.1721 1.16035 26.3196L1.07197 25.4355L0.906267 23.5427C0.737982 21.4982 0.648074 19.4488 0.636719 17.3982C0.636719 15.3535 0.751608 13.2152 0.906267 11.2537L1.07197 9.3609L1.16035 8.47688C1.35071 6.62471 2.22907 4.89514 3.64077 3.59273C5.05247 2.29031 6.907 1.49855 8.87781 1.35687L10.6917 1.22374L12.6802 1.09686L14.8057 0.978298L17.0239 0.878456C18.9251 0.800926 20.8278 0.760703 22.7308 0.757812ZM18.312 12.3541V22.4423C18.312 23.4033 19.4167 24.0024 20.3005 23.524L29.58 18.4798C29.7819 18.3704 29.9496 18.2128 30.0662 18.0229C30.1829 17.833 30.2443 17.6176 30.2443 17.3982C30.2443 17.1789 30.1829 16.9634 30.0662 16.7735C29.9496 16.5836 29.7819 16.426 29.58 16.3166L20.3005 11.2745C20.0989 11.165 19.8702 11.1073 19.6374 11.1073C19.4046 11.1074 19.176 11.1651 18.9744 11.2747C18.7729 11.3844 18.6056 11.542 18.4893 11.7319C18.373 11.9217 18.3118 12.137 18.312 12.3562V12.3541Z" fill="white"/>
</svg>
